<svg xmlns="http://www.w3.org/2000/svg" class="h-6 w-6" fill="none" viewBox="0 0 24 24" stroke="currentColor">
  <path stroke-linecap="round" stroke-linejoin="round" stroke-width="2" d="M9 12l2 2 4-4m5.618-4.016A11.955 11.955 0 0112 2.944a11.955 11.955 0 01-8.618 3.04A12.02 12.02 0 003 20.955a12.02 12.02 0 009 2.944c.427 0 .852-.02 1.274-.06a12.02 12.02 0 008.618-3.04c-.312-.22-.613-.455-.913-.701a11.953 11.953 0 01-1.423-.972l-4.13-3.692a.5.5 0 00-.638.016l-2.002 1.779a.5.5 0 01-.758-.02l-2.002-1.779a.5.5 0 00-.758.02l-4.13 3.692a11.953 11.953 0 01-1.423.972 12.02 12.02 0 00-.913.701A12.02 12.02 0 003 20.955a12.02 12.02 0 009 2.944a12.02 12.02 0 009-2.944 11.955 11.955 0 01-2.382-8.016z" />
</svg>
